<svg width="25" height="24" viewBox="0 0 25 24" fill="none" xmlns="http://www.w3.org/2000/svg">
<g clip-path="url(#clip0_8013_1210)">
<path d="M19.0459 12.763C19.0699 10.893 20.0499 9.16603 21.6429 8.18703C20.6339 6.74503 19.0029 5.86403 17.2439 5.80903C15.3929 5.61503 13.5989 6.91603 12.6559 6.91603C11.6949 6.91603 10.2429 5.82803 8.67887 5.86003C6.62187 5.92703 4.74987 7.06803 3.74887 8.86703C1.61787 12.557 3.20687 17.981 5.24887 20.964C6.27087 22.425 7.46387 24.056 9.02687 23.999C10.5559 23.936 11.1269 23.024 12.9719 23.024C14.7999 23.024 15.3359 23.999 16.9299 23.962C18.5699 23.935 19.6039 22.495 20.5899 21.02C21.3239 19.979 21.8889 18.829 22.2629 17.612C20.3149 16.788 19.0479 14.879 19.0459 12.763Z" fill="black"/>
<path d="M16.0348 3.847C16.9288 2.773 17.3698 1.393 17.2628 0C15.8968 0.144 14.6338 0.797 13.7278 1.829C12.8328 2.848 12.3788 4.18 12.4668 5.534C13.8518 5.548 15.1668 4.926 16.0348 3.847Z" fill="black"/>
</g>
<defs>
<clipPath id="clip0_8013_1210">
<rect width="24" height="24" fill="white" transform="translate(0.5)"/>
</clipPath>
</defs>
</svg>
