<svg width="91" height="90" viewBox="0 0 91 90" fill="none" xmlns="http://www.w3.org/2000/svg">
<g clip-path="url(#clip0_8013_1007)">
<path d="M70.8125 90H20.1875C15.5375 90 11.75 86.2163 11.75 81.5625V42.1875C11.75 37.5337 15.5375 33.75 20.1875 33.75H70.8125C75.4625 33.75 79.25 37.5337 79.25 42.1875V81.5625C79.25 86.2163 75.4625 90 70.8125 90ZM20.1875 39.375C18.6388 39.375 17.375 40.635 17.375 42.1875V81.5625C17.375 83.115 18.6388 84.375 20.1875 84.375H70.8125C72.3613 84.375 73.625 83.115 73.625 81.5625V42.1875C73.625 40.635 72.3613 39.375 70.8125 39.375H20.1875Z" fill="#121212"/>
<path d="M65.1875 39.375C63.635 39.375 62.375 38.115 62.375 36.5625V22.5C62.375 13.1962 54.8037 5.625 45.5 5.625C36.1962 5.625 28.625 13.1962 28.625 22.5V36.5625C28.625 38.115 27.365 39.375 25.8125 39.375C24.26 39.375 23 38.115 23 36.5625V22.5C23 10.0912 33.0912 0 45.5 0C57.9087 0 68 10.0912 68 22.5V36.5625C68 38.115 66.74 39.375 65.1875 39.375Z" fill="#121212"/>
<path d="M45.5 63.75C41.3637 63.75 38 60.3863 38 56.25C38 52.1137 41.3637 48.75 45.5 48.75C49.6363 48.75 53 52.1137 53 56.25C53 60.3863 49.6363 63.75 45.5 63.75ZM45.5 54.375C44.4688 54.375 43.625 55.215 43.625 56.25C43.625 57.285 44.4688 58.125 45.5 58.125C46.5312 58.125 47.375 57.285 47.375 56.25C47.375 55.215 46.5312 54.375 45.5 54.375Z" fill="#121212"/>
<path d="M45.5 75C43.9475 75 42.6875 73.74 42.6875 72.1875V61.875C42.6875 60.3225 43.9475 59.0625 45.5 59.0625C47.0525 59.0625 48.3125 60.3225 48.3125 61.875V72.1875C48.3125 73.74 47.0525 75 45.5 75Z" fill="#121212"/>
</g>
<defs>
<clipPath id="clip0_8013_1007">
<rect width="90" height="90" fill="white" transform="translate(0.5)"/>
</clipPath>
</defs>
</svg>
