<svg width="25" height="24" viewBox="0 0 25 24" fill="none" xmlns="http://www.w3.org/2000/svg">
<g clip-path="url(#clip0_8013_1218)">
<path d="M24.3385 9.80878C24.3385 9.80878 24.5001 11.487 24.5001 12.0425C24.5001 12.6292 24.3385 14.3776 24.3385 14.3776C24.3382 14.3802 24.3378 14.3828 24.3374 14.3854C23.9591 17.0068 22.9018 19.3673 20.9723 21.0642L17.007 18.1481C17.3084 17.9538 17.5945 17.7389 17.8632 17.5052C18.8198 16.6735 19.2834 15.6 19.4973 14.3854H12.8047V9.80878H24.3386H24.3385Z" fill="#4386F7"/>
<path d="M21.0277 3.13884L17.4999 6.53029C16.2273 5.49414 14.6727 4.73445 12.893 4.73445C9.6229 4.73445 6.84308 6.78555 5.82719 9.64307L1.80078 6.68185C3.8285 2.73545 8.01198 0 12.8045 0C15.9405 0 18.8546 1.23639 21.0199 3.13204C21.0225 3.13433 21.0252 3.13654 21.0276 3.13884H21.0277Z" fill="#EE4131"/>
<path d="M20.9724 21.0642C20.9594 21.0758 20.9462 21.0872 20.9332 21.0986C18.7716 22.9781 15.8574 23.9999 12.7364 23.9999C7.94127 23.9999 3.79025 21.3045 1.78369 17.3794L5.81706 14.413C6.82463 17.2855 9.61205 19.3504 12.8931 19.3504C14.4125 19.3504 15.8269 18.9085 17.0071 18.148L20.9724 21.0641V21.0642Z" fill="#33A951"/>
<path d="M5.81675 14.4131L1.78339 17.3794C0.962098 15.7729 0.5 13.9604 0.5 12.0424C0.5 10.1244 0.969062 8.30004 1.80066 6.68182L5.82706 9.64304C5.55975 10.3946 5.41452 11.2019 5.41452 12.0424C5.41452 12.8829 5.55604 13.6696 5.81675 14.4129V14.4131Z" fill="#FFBE00"/>
</g>
<defs>
<clipPath id="clip0_8013_1218">
<rect width="24" height="24" fill="white" transform="translate(0.5)"/>
</clipPath>
</defs>
</svg>
