<svg width="24" height="24" viewBox="0 0 24 24" fill="none" xmlns="http://www.w3.org/2000/svg">
<path d="M23.2151 12.0202C23.2151 12.7502 22.7441 13.4002 21.9251 13.8102L5.50513 22.0202C5.10513 22.2202 4.71513 22.3202 4.35513 22.3202C3.83413 22.3202 3.37513 22.1002 3.08413 21.7112C2.83513 21.3702 2.59513 20.7802 2.88513 19.8202L4.73513 13.6502C4.79513 13.4702 4.83513 13.2512 4.85513 13.0202L14.9851 13.0202C15.5351 13.0202 15.9851 12.5702 15.9851 12.0202C15.9851 11.4702 15.5351 11.0202 14.9851 11.0202L4.85513 11.0202C4.83413 10.7902 4.79413 10.5702 4.73513 10.3902L2.88513 4.22023C2.59513 3.26023 2.83513 2.67023 3.08513 2.33023C3.57513 1.67023 4.50513 1.52023 5.50513 2.02023L21.9261 10.2302C22.7451 10.6402 23.2151 11.2902 23.2151 12.0202Z" fill="white"/>
</svg>
