<svg width="328" height="167" viewBox="0 0 328 167" fill="none" xmlns="http://www.w3.org/2000/svg">
<path d="M52.0283 1.97485C53.2837 3.25331 53.974 4.78029 54.7113 6.38785C54.8326 6.64908 54.954 6.91025 55.0755 7.17137C55.9959 9.15381 56.8983 11.1446 57.7986 13.1362C58.5663 14.8327 59.3538 16.5193 60.1502 18.2025C61.0996 20.2099 62.0311 22.2243 62.9461 24.2476C63.8689 26.2877 64.8071 28.3204 65.7506 30.3511C66.8879 32.7992 68.0155 35.2515 69.129 37.7107C69.2023 37.8725 69.2023 37.8725 69.277 38.0376C69.4175 38.3479 69.5579 38.6583 69.6982 38.9687C69.886 39.3806 70.0753 39.7914 70.2675 40.2012C70.3609 40.4008 70.4544 40.6004 70.5506 40.806C70.6342 40.983 70.7178 41.16 70.8038 41.3423C71.4412 42.8155 71.4606 44.9102 70.8771 46.4091C70.7549 46.6604 70.6264 46.9087 70.4894 47.1522C70.3899 47.3335 70.2903 47.5148 70.1878 47.7015C69.25 48.8738 68.1856 49.7458 66.6983 50.0817C65.231 50.2196 63.9153 50.1711 62.5627 49.5647C62.5058 49.451 62.4489 49.3373 62.3903 49.2201C62.1071 49.0957 61.8199 48.98 61.5287 48.8754C61.5287 48.7617 61.5287 48.648 61.5287 48.5308C61.3581 48.4739 61.1875 48.4171 61.0118 48.3585C60.493 47.8786 60.0398 47.3854 59.6332 46.8076C58.7391 47.0801 57.9165 47.4548 57.074 47.8536C56.7711 47.9955 56.4682 48.1373 56.1653 48.2791C55.6953 48.4998 55.2255 48.7209 54.7559 48.9424C53.0727 49.7355 51.3856 50.5067 49.6589 51.2011C49.5192 51.2575 49.3796 51.3139 49.2357 51.372C45.7924 52.7321 41.8374 52.9513 38.2656 51.9772C38.0617 51.9226 37.8577 51.8679 37.6476 51.8116C34.3177 50.8105 31.3645 48.9865 28.9704 46.4744C28.5111 46.0134 28.224 45.7888 27.5703 45.7097C26.687 45.7931 25.987 46.0981 25.18 46.4522C24.1381 46.9068 23.2151 47.2917 22.0675 47.3246C21.3751 46.7552 21.1675 46.2415 20.9239 45.3893C20.857 45.158 20.857 45.158 20.7888 44.9221C20.7394 44.7465 20.7394 44.7465 20.689 44.5674C17.5531 45.5334 14.7994 46.6061 12.2453 48.7031C12.1242 48.796 12.0032 48.8888 11.8784 48.9845C9.0021 51.2972 7.18935 54.9387 6.55874 58.5253C6.26431 62.6855 6.97092 66.761 9.66049 70.0708C9.83275 70.285 9.83275 70.285 10.0085 70.5036C16.1072 77.6791 27.6981 78.532 36.3867 79.5398C41.6752 80.1563 41.6752 80.1563 44.2106 80.6361C44.4034 80.6725 44.5962 80.7088 44.7949 80.7463C54.8119 82.6882 65.2223 87.6088 71.1197 96.2618C71.196 96.376 71.2723 96.4903 71.351 96.608C71.4658 96.7797 71.4658 96.7797 71.5829 96.9549C73.2195 99.4533 74.2675 102.171 74.9481 105.073C74.9811 105.213 75.014 105.352 75.048 105.495C75.6757 108.408 75.7284 111.379 75.7236 114.346C75.7237 114.628 75.7237 114.628 75.7238 114.914C75.7201 117.979 75.518 120.967 75.1024 124.001C74.997 124.784 74.9216 125.564 74.8633 126.352C74.6284 129.472 73.9797 132.36 73.1748 135.374C72.9083 136.375 72.6711 137.381 72.4603 138.396C72.42 138.585 72.42 138.585 72.3789 138.779C72.2665 139.33 72.2126 139.811 72.2126 140.377C73.0693 139.566 73.801 138.72 74.485 137.76C74.5812 137.626 74.6774 137.491 74.7765 137.353C75.7471 135.977 76.6108 134.544 77.4563 133.088C77.7382 132.603 78.0228 132.12 78.3077 131.637C81.221 126.686 84.018 121.663 86.5636 116.512C86.64 116.359 86.7164 116.205 86.7951 116.047C86.9639 115.702 87.1286 115.356 87.2906 115.008C87.4212 114.733 87.4212 114.733 87.5544 114.453C87.6318 114.286 87.7092 114.119 87.789 113.948C88.105 113.432 88.4297 113.146 88.9276 112.806C90.4061 112.493 91.9114 112.985 93.1582 113.773C93.9076 114.327 94.5641 114.874 94.9588 115.736C94.9138 116.934 94.3977 117.979 93.9464 119.074C91.5285 125.104 88.6859 132.263 88.7445 138.826C88.7457 139.002 88.7457 139.002 88.7468 139.181C88.7488 139.465 88.7519 139.749 88.7553 140.033C94.469 135.045 98.0117 127.653 100.805 120.725C101.661 118.61 102.599 116.564 103.693 114.562C103.785 114.39 103.785 114.39 103.879 114.214C104.321 113.429 104.78 112.828 105.643 112.505C107.133 112.318 108.648 112.774 109.864 113.646C110.563 114.234 111.216 114.803 111.462 115.709C111.508 116.345 111.396 116.631 111.107 117.194C110.972 117.462 110.972 117.462 110.834 117.735C110.684 118.02 110.684 118.02 110.532 118.31C110.431 118.507 110.33 118.704 110.226 118.907C109.364 120.574 108.444 122.207 107.51 123.834C106.962 124.792 106.458 125.765 105.987 126.764C106.135 126.569 106.135 126.569 106.285 126.371C108.043 124.064 109.836 121.792 111.846 119.699C111.944 119.596 112.042 119.493 112.144 119.387C116.96 114.367 116.96 114.367 119.514 114.303C121.378 114.321 123.002 115.105 124.382 116.328C125.163 117.217 125.529 117.761 125.504 118.94C125.431 119.618 125.182 120.181 124.897 120.795C124.838 120.929 124.779 121.063 124.719 121.201C124.592 121.489 124.464 121.776 124.335 122.063C123.992 122.828 123.66 123.597 123.328 124.366C123.26 124.523 123.192 124.679 123.123 124.841C122.452 126.406 121.854 127.994 121.281 129.596C121.236 129.72 121.191 129.844 121.145 129.972C120.319 132.266 119.482 134.61 119.116 137.028C119.095 137.154 119.074 137.281 119.053 137.411C119.004 137.71 118.957 138.01 118.911 138.309C120.482 137.283 121.874 136.169 123.219 134.863C123.383 134.706 123.547 134.549 123.715 134.388C124.785 133.344 125.75 132.253 126.666 131.072C126.744 130.971 126.822 130.871 126.903 130.767C127.529 129.961 128.137 129.143 128.733 128.315C128.816 128.201 128.898 128.087 128.983 127.969C130.438 125.919 131.412 123.745 132.352 121.422C132.448 121.186 132.544 120.949 132.64 120.713C133.072 119.651 133.502 118.588 133.932 117.525C134.266 116.698 134.601 115.872 134.937 115.046C135.021 114.84 135.021 114.84 135.106 114.63C135.433 113.826 135.762 113.024 136.095 112.223C136.198 111.975 136.3 111.726 136.401 111.477C136.541 111.133 136.684 110.79 136.828 110.447C136.949 110.156 136.949 110.156 137.071 109.859C137.382 109.302 137.683 109.021 138.211 108.67C139.877 108.318 141.495 109.002 142.874 109.887C143.355 110.215 143.567 110.414 143.898 110.911C143.966 111.66 143.859 112.14 143.521 112.806C142.98 113.927 142.578 115.077 142.174 116.252C142.353 116.115 142.353 116.115 142.535 115.975C144.26 114.678 145.675 113.844 147.902 114.096C148.95 114.291 149.956 114.637 150.963 114.982C151.072 115.018 151.18 115.055 151.293 115.093C152.751 115.592 154.16 116.092 155.071 117.395C155.133 117.537 155.196 117.679 155.26 117.825C155.325 117.968 155.391 118.11 155.458 118.257C155.7 118.885 155.809 119.427 155.804 120.1C155.804 120.238 155.803 120.375 155.803 120.517C155.801 120.66 155.8 120.802 155.798 120.948C155.798 121.093 155.797 121.238 155.796 121.387C155.794 121.743 155.791 122.1 155.788 122.456C155.959 122.368 156.13 122.281 156.306 122.191C161.688 119.455 161.688 119.455 163.887 119.527C163.907 119.405 163.927 119.284 163.948 119.159C164.068 118.624 164.247 118.153 164.455 117.645C164.538 117.446 164.62 117.246 164.704 117.04C164.794 116.824 164.884 116.608 164.974 116.392C165.02 116.282 165.066 116.172 165.113 116.058C166.001 113.925 166.949 111.822 167.937 109.733C168.195 109.186 168.45 108.638 168.706 108.09C169.781 105.794 170.949 103.572 172.229 101.384C172.494 100.93 172.757 100.474 173.019 100.017C177.427 92.4228 177.427 92.4228 180.429 90.9215C182.318 90.7205 183.936 91.7778 185.427 92.817C185.559 92.9085 185.691 93 185.828 93.0943C186.594 93.6445 187.237 94.1974 187.667 95.0571C187.734 95.6616 187.73 95.9877 187.408 96.5111C187.066 96.8619 186.725 97.1742 186.353 97.4912C182.498 100.823 179.698 105.595 177.328 110.049C177.247 110.199 177.166 110.349 177.083 110.503C173.729 116.751 171.178 123.281 169.056 130.038C169 130.217 168.944 130.395 168.886 130.579C167.03 136.606 165.882 143.219 166.687 149.51C166.715 149.74 166.715 149.74 166.744 149.975C166.923 151.202 167.276 152.191 168.141 153.097C169.054 153.7 170.047 153.989 171.124 154.163C170.594 154.774 170.18 154.993 169.401 155.197C168.916 155.229 168.453 155.246 167.969 155.24C167.839 155.239 167.709 155.237 167.575 155.236C166.073 155.208 164.994 154.956 163.714 154.163C163.544 154.106 163.373 154.049 163.197 153.991C162.91 153.703 162.623 153.416 162.336 153.129C162.165 153.072 161.995 153.015 161.819 152.957C161.524 152.625 161.255 152.297 160.99 151.944C160.913 151.844 160.837 151.744 160.759 151.641C160.182 150.868 159.7 150.067 159.261 149.207C159.054 148.789 159.054 148.789 158.717 148.304C158.619 148.063 158.53 147.818 158.448 147.572C158.405 147.446 158.362 147.321 158.318 147.192C156.486 140.367 159.485 131.809 161.694 125.42C161.915 124.814 161.915 124.814 161.991 124.179C159.548 125.712 157.135 127.317 154.926 129.176C154.834 129.246 154.741 129.316 154.646 129.388C153.762 130.084 153.263 130.873 152.718 131.847C151.447 134.04 150.017 136.029 148.378 137.965C148.263 138.102 148.263 138.102 148.145 138.242C142.014 145.536 142.014 145.536 138.014 146.198C137.247 146.257 136.519 146.167 135.799 145.891C135.524 145.638 135.524 145.638 135.282 145.375C135.111 145.271 134.94 145.168 134.765 145.062C134.074 144.558 133.809 144.129 133.67 143.28C133.526 140.938 134.91 139.038 136.356 137.34C137.478 136.07 138.661 134.884 139.946 133.78C140.271 133.491 140.577 133.192 140.882 132.881C141.691 132.061 142.567 131.323 143.445 130.579C143.97 130.134 144.491 129.685 145.01 129.234C145.223 129.05 145.44 128.868 145.657 128.688C147.446 127.093 148.241 124.233 148.55 121.939C148.566 121.552 148.573 121.164 148.572 120.776C148.572 120.484 148.572 120.484 148.573 120.186C148.584 119.707 148.584 119.707 148.378 119.354C145.632 119.708 143.777 121.944 142.174 124.007C142.04 124.173 141.906 124.339 141.767 124.51C139.719 127.085 138.108 129.932 136.571 132.832C136.325 133.295 136.074 133.755 135.823 134.215C131.335 142.517 127.963 151.613 125.033 160.566C124.995 160.681 124.957 160.796 124.918 160.914C124.738 161.467 124.569 162.02 124.411 162.58C124.354 162.782 124.297 162.985 124.238 163.193C124.191 163.372 124.143 163.55 124.094 163.734C123.908 164.157 123.908 164.157 123.543 164.39C123.383 164.445 123.383 164.445 123.219 164.502C123.219 164.275 123.219 164.047 123.219 163.813C122.969 163.806 122.969 163.806 122.714 163.799C121.097 163.729 119.665 163.625 118.405 162.499C118.288 162.364 118.17 162.229 118.05 162.09C117.879 161.976 117.708 161.862 117.533 161.745C117.5 161.293 117.5 161.293 117.533 160.883C116.987 161.199 116.987 161.199 116.671 161.745C116.763 160.717 116.986 159.867 117.368 158.912C117.449 158.702 117.449 158.702 117.533 158.488C117.714 158.022 117.898 157.557 118.082 157.092C118.211 156.762 118.34 156.432 118.469 156.102C118.75 155.385 119.031 154.669 119.313 153.953C119.76 152.819 120.203 151.684 120.647 150.549C121.026 149.578 121.407 148.607 121.787 147.636C121.908 147.325 121.908 147.325 122.033 147.008C123.708 142.729 123.708 142.729 124.598 140.722C124.443 140.838 124.443 140.838 124.286 140.956C123.798 141.322 123.306 141.681 122.81 142.036C122.715 142.106 122.62 142.176 122.522 142.249C121.896 142.692 121.398 142.895 120.634 142.962C120.691 142.791 120.748 142.621 120.807 142.445C120.638 142.451 120.47 142.457 120.296 142.463C118.988 142.49 117.885 142.472 116.671 141.928C116.614 141.814 116.557 141.701 116.499 141.583C116.158 141.458 115.813 141.343 115.465 141.239C115.465 141.125 115.465 141.011 115.465 140.894C115.18 140.837 114.896 140.78 114.603 140.722C114.603 140.608 114.603 140.494 114.603 140.377C114.507 140.37 114.411 140.363 114.312 140.356C113.7 140.124 113.447 139.686 113.052 139.171C112.825 139.228 112.597 139.285 112.363 139.343C112.167 138.588 112.193 137.874 112.245 137.103C112.253 136.974 112.261 136.846 112.269 136.713C112.336 135.737 112.463 134.78 112.638 133.817C112.722 133.304 112.722 133.304 112.695 132.75C112.708 132.098 112.811 131.57 112.979 130.942C113.066 130.614 113.066 130.614 113.156 130.28C113.187 130.167 113.218 130.055 113.249 129.939C113.342 129.602 113.431 129.265 113.521 128.927C113.878 127.592 114.297 126.301 114.786 125.009C114.975 124.527 114.975 124.527 114.948 124.007C113.683 125.198 112.608 126.463 111.558 127.843C111.345 128.122 111.128 128.398 110.911 128.674C107.405 133.144 104.418 137.996 101.692 142.972C101.406 143.489 101.112 144.001 100.818 144.513C100.784 144.401 100.75 144.289 100.715 144.174C100.635 144.058 100.555 143.943 100.473 143.824C99.9548 143.727 99.9548 143.727 99.3529 143.737C98.2026 143.687 97.3646 143.461 96.3373 142.962C96.2034 142.909 96.0694 142.855 95.9314 142.8C95.5731 142.648 95.2674 142.51 94.9588 142.273C94.7865 141.713 94.7865 141.713 94.7865 141.239C93.6802 141.004 93.6802 141.004 92.6648 141.326C92.5119 141.443 92.3591 141.56 92.2017 141.68C92.0331 141.805 91.8645 141.929 91.6908 142.057C91.3536 142.307 91.0174 142.558 90.6824 142.811C89.9008 143.363 89.3247 143.745 88.346 143.684C87.6456 143.552 87.1759 143.327 86.6874 142.79C86.6874 142.676 86.6874 142.562 86.6874 142.445C86.3462 142.388 86.005 142.331 85.6535 142.273C85.5966 142.102 85.5398 141.932 85.4812 141.756C85.1365 141.548 85.1365 141.548 84.7919 141.411C84.7919 141.297 84.7919 141.184 84.7919 141.067C84.6213 141.067 84.4507 141.067 84.275 141.067C83.6318 140.102 83.5387 139.093 83.5857 137.965C83.4719 137.965 83.3582 137.965 83.241 137.965C83.1842 138.135 83.1273 138.306 83.0687 138.482C82.8981 138.027 82.7275 137.572 82.5518 137.103C82.3243 137.103 82.0968 137.103 81.8625 137.103C81.8252 137.215 81.7878 137.327 81.7494 137.442C81.432 138.158 81.0074 138.781 80.5701 139.429C80.4774 139.567 80.3848 139.705 80.2894 139.847C79.1654 141.503 77.9699 143.069 76.6283 144.556C76.5421 144.653 76.4559 144.75 76.3671 144.849C76.0241 145.22 75.7384 145.513 75.2686 145.711C75.1699 145.714 75.0713 145.716 74.9697 145.719C74.8915 145.634 74.8133 145.549 74.7327 145.461C74.5941 145.333 74.5941 145.333 74.4527 145.202C73.9362 145.244 73.5383 145.315 73.0742 145.547C72.2162 145.748 71.4791 145.695 70.6186 145.579C70.4327 145.558 70.4327 145.558 70.243 145.536C69.3268 145.418 69.3268 145.418 68.9385 145.03C68.7191 144.939 68.4959 144.857 68.2708 144.782C67.7313 144.588 67.2914 144.399 66.8707 143.996C66.8707 143.882 66.8707 143.768 66.8707 143.651C66.7569 143.651 66.6432 143.651 66.526 143.651C66.5159 143.109 66.5098 142.567 66.5045 142.025C66.5016 141.874 66.4987 141.722 66.4957 141.566C66.4882 140.547 66.6081 139.638 66.8707 138.654C67.0031 138.147 67.0722 137.68 67.1076 137.157C67.1755 136.418 67.348 135.801 67.6023 135.108C67.7543 134.62 67.8297 134.141 67.9046 133.635C67.9948 133.037 68.0907 132.515 68.3461 131.966C68.6132 131.374 68.6784 130.85 68.7662 130.21C68.8799 130.097 68.9936 129.983 69.1108 129.866C69.1777 129.581 69.2336 129.293 69.2831 129.004C69.3681 128.674 69.4543 128.343 69.5416 128.013C69.7355 127.247 69.8711 126.506 69.9415 125.72C69.9675 125.438 70.0111 125.158 70.0586 124.879C70.131 124.435 70.1796 124.002 70.2201 123.555C70.2785 122.936 70.366 122.334 70.4786 121.724C70.6919 120.509 70.7866 119.286 70.8861 118.058C70.8994 117.899 70.9126 117.74 70.9262 117.577C70.9376 117.434 70.9489 117.291 70.9606 117.143C71.0063 116.769 71.0063 116.769 71.1786 116.252C71.1236 115.965 71.0657 115.678 71.0063 115.391C70.9964 115.013 70.9957 114.634 71.0016 114.256C71.0037 114.039 71.0058 113.822 71.008 113.598C71.0141 113.143 71.0208 112.688 71.0282 112.234C71.0301 112.016 71.032 111.799 71.0339 111.574C71.0368 111.377 71.0397 111.179 71.0427 110.976C71.0029 110.338 70.8528 109.795 70.6617 109.187C70.6249 108.937 70.5949 108.686 70.5755 108.433C70.499 107.632 70.3296 106.868 70.1447 106.086C70.086 105.799 70.0283 105.512 69.9724 105.224C69.9404 105.064 69.9084 104.904 69.8755 104.739C69.8506 104.615 69.8257 104.491 69.8001 104.362C69.6864 104.362 69.5726 104.362 69.4555 104.362C69.3417 103.964 69.228 103.566 69.1108 103.156C68.9402 103.156 68.7696 103.156 68.5939 103.156C68.573 103.046 68.5521 102.936 68.5306 102.823C68.5017 102.681 68.4728 102.538 68.4431 102.392C68.4151 102.25 68.3871 102.108 68.3583 101.961C68.3223 101.844 68.2863 101.726 68.2492 101.605C68.1355 101.548 68.0218 101.492 67.9046 101.433C67.77 101.063 67.77 101.063 67.6461 100.604C67.424 99.7791 67.424 99.7791 67.043 99.0205C66.8724 98.9636 66.7018 98.9068 66.526 98.8482C66.2857 98.5224 66.2857 98.5224 66.0414 98.1158C65.7098 97.5935 65.4089 97.184 64.9213 96.8019C64.4582 96.4357 64.4582 96.4357 64.2859 95.9187C63.9445 95.6841 63.5999 95.4542 63.2519 95.2295C63.1951 95.1157 63.1382 95.002 63.0796 94.8848C62.909 94.828 62.7384 94.7711 62.5627 94.7125C62.5627 94.5988 62.5627 94.485 62.5627 94.3679C62.4614 94.3217 62.3601 94.2755 62.2557 94.2279C61.7599 93.9625 61.3881 93.6134 60.9741 93.237C60.6577 92.9817 60.3468 92.813 59.9779 92.6447C59.9779 92.5309 59.9779 92.4172 59.9779 92.3C59.6935 92.1863 59.4092 92.0726 59.1163 91.9554C59.1163 91.8417 59.1163 91.7279 59.1163 91.6107C58.8319 91.5539 58.5476 91.497 58.2547 91.4384C58.2547 91.3247 58.2547 91.211 58.2547 91.0938C58.1125 91.0831 57.9703 91.0725 57.8239 91.0615C57.1652 90.9086 56.78 90.6605 56.2265 90.2901C55.668 89.9556 55.0755 89.744 54.4643 89.5247C54.119 89.3706 54.119 89.3706 53.9467 89.026C53.6008 88.8929 53.6008 88.8929 53.182 88.789C52.2591 88.5293 51.3838 88.19 50.5003 87.8197C50.5003 87.706 50.5003 87.5922 50.5003 87.4751C50.3064 87.4497 50.3064 87.4497 50.1085 87.4239C49.0418 87.2681 48.13 87.0335 47.1434 86.6047C46.5202 86.3699 45.8913 86.2668 45.2351 86.1645C44.8568 86.1035 44.4951 86.0198 44.1244 85.9242C43.78 85.8656 43.4354 85.8082 43.0905 85.7519C42.6966 85.6773 42.3051 85.5979 41.9153 85.5042C40.8809 85.2599 39.8427 85.1092 38.7893 84.9704C38.2656 84.8903 38.2656 84.8903 37.7486 84.718C37.61 84.718 37.4714 84.718 37.3286 84.718C36.887 84.718 36.887 84.718 36.5976 84.6365C36.0277 84.507 35.4548 84.4966 34.873 84.4702C33.9596 84.4227 33.1114 84.3284 32.2236 84.098C31.8341 84.0053 31.8341 84.0053 31.2005 84.0287C30.531 84.0287 30 83.9297 29.3568 83.7709C28.9506 83.6819 28.5557 83.6356 28.1418 83.5979C27.549 83.5406 27.1015 83.3885 26.5478 83.1671C26.1567 83.1098 25.767 83.0706 25.3732 83.0372C25.0053 82.9957 24.6643 82.9203 24.3077 82.8224C24.3077 82.7087 24.3077 82.595 24.3077 82.4778C24.1939 82.4778 24.0802 82.4778 23.963 82.4778C23.963 82.5915 23.963 82.7053 23.963 82.8224C21.0439 82.1168 21.0439 82.1168 19.655 81.6162C19.4573 81.5484 19.2596 81.4807 19.056 81.4109C18.8414 81.3365 18.6268 81.2621 18.4057 81.1854C18.2058 81.1161 18.0059 81.0468 17.7999 80.9754C17.2839 80.771 16.8531 80.5256 16.381 80.2376C16.122 80.1394 15.8598 80.049 15.5948 79.9684C15.0791 79.8102 14.6182 79.6271 14.1408 79.376C13.8466 79.2248 13.5523 79.0741 13.2577 78.9237C13.108 78.8468 12.9582 78.77 12.804 78.6908C12.4361 78.4906 12.4361 78.4906 12.073 78.5144C11.7929 78.2775 11.7929 78.2775 11.556 77.9975C11.556 77.8838 11.556 77.77 11.556 77.6528C11.3996 77.6386 11.2432 77.6244 11.0821 77.6098C10.4325 77.4599 10.2798 77.2662 9.83281 76.7912C9.49355 76.6086 9.14967 76.4337 8.79889 76.2743C8.79889 76.1606 8.79889 76.0468 8.79889 75.9296C8.60164 75.8657 8.60164 75.8657 8.4004 75.8004C7.89235 75.5641 7.70322 75.3722 7.42033 74.8957C7.42033 74.782 7.42033 74.6683 7.42033 74.5511C7.31371 74.5369 7.20709 74.5227 7.09724 74.508C6.73106 74.3788 6.73106 74.3788 6.51566 74.0234C6.47301 73.9132 6.43036 73.803 6.38642 73.6895C6.27269 73.6895 6.15895 73.6895 6.04178 73.6895C6.03111 73.5829 6.02045 73.4762 6.00947 73.3664C5.96326 73.2456 5.91706 73.1247 5.86946 73.0002C5.5859 72.8766 5.29835 72.7618 5.00786 72.6556C4.61322 72.0636 4.63247 71.7965 4.66322 71.1047C4.54949 71.1047 4.43576 71.1047 4.31858 71.1047C4.26171 71.2184 4.20485 71.3322 4.14626 71.4493C4.06807 71.2894 3.98988 71.1295 3.90932 70.9647C3.63927 70.4087 3.63927 70.4087 3.28466 69.8985C3.19379 69.5636 3.19379 69.5636 3.12311 69.1883C2.98092 68.5008 2.78608 67.8515 2.55945 67.1877C1.75869 64.8289 1.53695 62.5875 1.51838 60.1085C1.51674 59.9297 1.51511 59.7509 1.51342 59.5666C1.51853 58.3804 1.65694 57.2716 1.9061 56.1129C1.95171 55.8923 1.95171 55.8923 1.99824 55.6674C2.15122 54.9352 2.3422 54.2334 2.59538 53.5281C2.53852 53.4712 2.48165 53.4143 2.42306 53.3558C2.30933 53.7538 2.1956 54.1519 2.07842 54.562C1.96469 54.562 1.85096 54.562 1.73378 54.562C1.72334 54.6844 1.7129 54.8068 1.70215 54.9329C1.68771 55.0913 1.67327 55.2496 1.65839 55.4128C1.6444 55.5708 1.6304 55.7287 1.61599 55.8914C1.56146 56.2852 1.56146 56.2852 1.38914 56.4575C0.873949 59.5637 0.787986 62.8381 1.38914 65.9351C1.16168 65.9351 0.934219 65.9351 0.699864 65.9351C0.529267 64.8547 0.358671 63.7742 0.182905 62.661C0.126039 62.661 0.0691736 62.661 0.0105849 62.661C-0.165265 55.8588 1.84262 50.1757 6.5836 45.1738C8.99312 42.702 12.0114 40.832 15.1747 39.484C15.3065 39.4278 15.4383 39.3715 15.5741 39.3136C16.459 38.9521 17.3379 38.7149 18.2765 38.5363C18.2499 38.4331 18.2234 38.33 18.1961 38.2237C18.0249 37.5424 17.8954 36.8691 17.8565 36.1669C17.8461 35.9869 17.8461 35.9869 17.8356 35.8034C17.9887 35.2167 18.3375 34.9587 18.7934 34.5729C19.3252 34.2808 19.3252 34.2808 19.892 34.0344C20.0881 33.9473 20.2843 33.8603 20.4863 33.7705C20.9072 33.5925 21.3292 33.424 21.7552 33.259C22.3046 32.9904 22.3718 32.8844 22.5845 32.3327C22.6358 31.9736 22.6358 31.9736 22.6316 31.595C22.6362 31.38 22.6362 31.38 22.6408 31.1606C22.6449 30.9305 22.6449 30.9305 22.6491 30.6957C22.8032 26.2239 24.1115 21.9749 27.0648 18.5472C27.1541 18.433 27.2434 18.3188 27.3354 18.2012C27.9387 17.4523 28.6337 16.8344 29.3803 16.2316C29.4676 16.1595 29.5548 16.0875 29.6446 16.0132C31.5437 14.5269 33.8242 13.5023 36.0003 12.4935C36.3705 12.3219 36.7399 12.1488 37.1091 11.9755C38.3467 11.3962 39.5899 10.8297 40.8396 10.2772C40.9569 10.2249 41.0742 10.1726 41.1951 10.1187C42.016 9.75885 42.016 9.75885 42.4012 9.75885C42.3639 9.6007 42.3266 9.44254 42.2882 9.27959C41.7948 7.10521 41.7259 5.45004 42.7425 3.38437C43.6283 1.98878 45.0553 0.884305 46.6662 0.518207C48.7043 0.283035 50.394 0.680212 52.0283 1.97485Z" fill="white"/>
<path d="M323.563 91.7386C324.961 92.479 326.514 93.494 327.074 95.0571C327.249 96.1918 327.249 96.1918 326.842 96.7585C326.509 97.091 326.163 97.394 325.803 97.6957C325.547 97.9232 325.291 98.1512 325.036 98.3796C324.912 98.4896 324.787 98.5995 324.659 98.7128C314.183 108.125 308.555 126.727 306.223 142.79C305.989 148.034 305.989 148.034 308.021 152.684C308.769 153.44 309.524 153.749 310.531 153.99C310.359 154.507 310.359 154.507 309.863 154.787C308.168 155.432 306.661 155.201 305.017 154.507C304.457 154.208 303.963 153.866 303.466 153.473C303.347 153.385 303.229 153.297 303.107 153.206C300.633 151.228 299.551 147.792 299.192 144.751C298.956 141.916 299.123 139.082 299.612 136.286C299.716 135.642 299.78 134.995 299.847 134.346C299.739 134.535 299.63 134.725 299.519 134.92C298.667 136.397 297.798 137.826 296.745 139.171C296.621 139.33 296.497 139.489 296.37 139.653C293.707 142.988 293.707 142.988 291.789 143.209C289.582 143.211 287.577 142.818 285.9 141.276C284.618 139.93 284.449 138.667 284.492 136.849C284.498 136.706 284.504 136.562 284.511 136.414C283.608 137.286 283.608 137.286 282.787 138.234C282.387 138.722 281.942 139.107 281.462 139.516C281.031 139.889 280.618 140.278 280.203 140.668C277.811 142.844 274.806 145.537 271.434 145.439C268.488 145.244 265.665 143.353 263.681 141.26C262.332 139.65 262.25 137.824 262.249 135.821C262.247 135.613 262.245 135.405 262.243 135.19C262.24 133.787 262.371 132.452 262.626 131.072C261 132.255 259.384 133.45 257.801 134.691C257.63 134.824 257.459 134.957 257.283 135.095C257.12 135.224 256.957 135.354 256.789 135.488C256.576 135.656 256.576 135.656 256.359 135.828C255.082 136.992 254.337 138.236 253.622 139.79C253.346 140.39 253.062 140.986 252.778 141.581C252.722 141.7 252.666 141.819 252.607 141.941C251.893 143.439 251.092 144.889 250.28 146.336C250.055 146.738 249.834 147.142 249.615 147.547C248.121 150.293 246.485 152.971 244.705 155.541C244.639 155.636 244.573 155.732 244.505 155.83C243.538 157.221 242.524 158.554 241.431 159.849C241.269 160.047 241.108 160.245 240.947 160.442C239.29 162.453 237.286 164.711 234.538 165.019C234.123 164.995 233.722 164.947 233.311 164.88C232.972 164.816 232.972 164.816 232.642 165.019C232.642 164.905 232.642 164.791 232.642 164.674C232.482 164.66 232.322 164.646 232.158 164.631C230.531 164.389 229.052 163.694 227.817 162.606C227.817 162.493 227.817 162.379 227.817 162.262C227.715 162.221 227.613 162.181 227.507 162.139C226.784 161.715 226.443 160.934 226.094 160.194C225.974 159.719 225.947 159.31 225.922 158.815C225.848 158.408 225.772 158.022 225.642 157.629C225.421 156.387 226.808 154.777 227.473 153.818C228.26 152.761 229.122 151.774 230.011 150.801C230.266 150.521 230.518 150.239 230.766 149.953C231.675 148.913 232.654 147.982 233.674 147.056C234.078 146.689 234.468 146.313 234.85 145.924C235.463 145.302 236.117 144.737 236.778 144.168C236.973 143.999 237.167 143.83 237.362 143.661C239.07 142.175 240.783 140.696 242.54 139.268C243.582 138.419 244.602 137.545 245.618 136.665C245.822 136.49 246.027 136.318 246.234 136.147C248.751 134.052 249.665 130.098 250.736 127.109C250.026 127.891 249.333 128.68 248.679 129.51C248.092 130.252 247.475 130.957 246.837 131.655C246.514 132.011 246.199 132.372 245.885 132.737C240.11 139.347 240.11 139.347 237.565 139.755C237.245 139.733 236.925 139.71 236.606 139.688C236.606 139.631 236.606 139.574 236.606 139.516C236.947 139.516 237.288 139.516 237.64 139.516C237.64 139.345 237.64 139.174 237.64 138.999C237.416 139.013 237.192 139.027 236.961 139.042C235.54 139.037 234.464 138.301 233.33 137.51C232.978 137.26 232.978 137.26 232.535 137.038C231.891 136.598 231.351 136.029 230.919 135.38C230.919 135.152 230.919 134.925 230.919 134.691C230.805 134.691 230.692 134.691 230.575 134.691C230.575 135.146 230.575 135.6 230.575 136.069C230.23 135.725 230.23 135.725 230.184 135.331C230.185 135.173 230.186 135.015 230.187 134.852C230.186 134.697 230.185 134.543 230.184 134.383C230.244 133.663 230.404 132.979 230.575 132.278C229.134 133.346 227.703 134.416 226.324 135.563C226.056 135.785 225.783 136 225.503 136.208C224.254 137.274 223.59 138.966 222.917 140.431C219.838 146.964 216.204 153.562 211.619 159.16C211.508 159.297 211.508 159.297 211.394 159.437C209.308 162 207.284 164.42 203.865 165.019C202.766 165.061 201.765 164.908 200.755 164.471C200.243 164.256 199.709 164.112 199.175 163.958C199.023 163.886 199.023 163.886 198.868 163.813C198.811 163.642 198.754 163.471 198.695 163.296C198.47 163.172 198.24 163.058 198.006 162.951C196.929 162.183 196.108 161.248 195.594 160.022C195.531 159.542 195.56 159.13 195.594 158.643C195.445 158.229 195.445 158.229 195.249 157.954C195.249 158.295 195.249 158.636 195.249 158.988C195.192 158.988 195.135 158.988 195.077 158.988C194.88 156.338 196.821 153.981 198.45 152.053C199.707 150.622 201.013 149.245 202.357 147.895C202.469 147.782 202.581 147.669 202.696 147.553C203.359 146.893 204.041 146.266 204.749 145.655C205.2 145.263 205.635 144.856 206.073 144.448C206.865 143.716 207.682 143.025 208.522 142.348C209.126 141.853 209.716 141.343 210.305 140.83C211.127 140.114 211.951 139.401 212.783 138.697C212.874 138.62 212.965 138.543 213.059 138.463C213.657 137.959 214.263 137.465 214.872 136.974C215.167 136.73 215.461 136.486 215.755 136.242C215.866 136.153 215.978 136.065 216.092 135.974C218.347 134.005 219.441 129.896 220.235 127.109C220.117 127.263 219.998 127.417 219.875 127.576C218.891 128.844 217.876 130.062 216.789 131.244C216.587 131.473 216.386 131.703 216.186 131.934C215.985 132.163 215.784 132.393 215.583 132.623C215.47 132.751 215.358 132.88 215.242 133.013C209.451 139.551 209.451 139.551 207.067 139.717C206.05 139.724 205.184 139.638 204.21 139.343C204.21 139.23 204.21 139.116 204.21 138.999C203.925 138.999 203.641 138.999 203.348 138.999C203.291 138.885 203.234 138.771 203.176 138.654C202.833 138.532 202.488 138.418 202.142 138.309C201.91 138.198 201.68 138.083 201.452 137.965C201.354 138.121 201.256 138.278 201.154 138.439C198.171 143.099 198.171 143.099 195.938 144.341C195.768 144.341 195.597 144.341 195.421 144.341C195.421 144.454 195.421 144.568 195.421 144.685C195.251 144.685 195.08 144.685 194.904 144.685C194.791 144.799 194.677 144.913 194.56 145.03C194.446 144.973 194.332 144.916 194.215 144.857C194.101 144.971 193.988 145.085 193.87 145.202C193.418 145.224 193.418 145.224 193.009 145.202C193.009 145.088 193.009 144.975 193.009 144.857C192.764 144.863 192.764 144.863 192.513 144.868C191.975 144.857 191.975 144.857 191.63 144.685C191.63 144.571 191.63 144.458 191.63 144.341C191.509 144.298 191.387 144.255 191.262 144.211C190.708 143.969 190.258 143.67 189.767 143.317C189.515 143.139 189.515 143.139 189.257 142.957C189.131 142.845 189.004 142.733 188.873 142.617C188.873 142.447 188.873 142.276 188.873 142.1C188.77 142.061 188.667 142.022 188.561 141.982C187.919 141.597 187.71 141.04 187.503 140.338C187.461 140.145 187.419 139.952 187.376 139.753C187.333 139.558 187.289 139.364 187.245 139.164C187.15 138.654 187.15 138.654 187.15 138.137C187.096 137.849 187.04 137.562 186.978 137.275C186.901 137.392 186.825 137.508 186.746 137.628C186.394 138.164 186.039 138.7 185.685 139.236C185.505 139.51 185.505 139.51 185.322 139.79C184.331 141.285 183.27 142.695 182.056 144.017C181.578 144.539 181.117 145.067 180.666 145.611C180.126 146.23 179.634 146.597 178.879 146.925C178.459 146.882 178.459 146.882 178.189 146.753C178.246 146.639 178.303 146.526 178.362 146.408C178.159 146.447 177.956 146.487 177.748 146.527C176.549 146.667 174.967 146.434 173.881 145.891C173.881 145.778 173.881 145.664 173.881 145.547C173.661 145.533 173.441 145.518 173.214 145.504C172.833 145.459 172.833 145.459 172.503 145.374C172.244 145.019 172.244 145.019 172.158 144.685C171.874 144.685 171.589 144.685 171.297 144.685C171.297 144.799 171.297 144.913 171.297 145.03C170.623 144.775 170.392 144.472 170.09 143.824C168.87 136.546 173.529 123.796 177.672 117.631C178.326 116.881 178.794 116.464 179.816 116.371C181.591 116.4 183.136 117.217 184.354 118.46C184.565 118.837 184.565 118.837 184.562 119.287C184.322 120.116 183.949 120.862 183.574 121.637C181.794 125.431 180.402 129.385 179.04 133.344C178.97 133.548 178.97 133.548 178.898 133.755C177.75 137.002 177.75 137.002 177.155 140.377C177.996 139.786 178.54 139.055 179.137 138.234C179.295 138.017 179.295 138.017 179.457 137.796C181.623 134.787 183.424 131.533 185.254 128.315C185.353 128.142 185.452 127.968 185.554 127.79C187.956 123.573 190.279 119.3 192.325 114.897C192.408 114.719 192.491 114.541 192.577 114.358C192.649 114.203 192.72 114.048 192.794 113.888C193.13 113.274 193.375 113.029 194.043 112.806C195.663 112.622 197.106 113.054 198.426 114.001C199.038 114.497 199.546 115.025 199.902 115.735C199.952 116.486 199.855 117.003 199.554 117.688C199.44 117.954 199.44 117.954 199.324 118.225C199.241 118.416 199.158 118.608 199.072 118.805C196.269 125.493 194.024 132.769 193.526 140.033C194.907 139.236 195.921 138.204 196.864 136.931C196.96 136.804 197.055 136.678 197.153 136.547C198.061 135.328 198.915 134.079 199.729 132.795C199.815 132.66 199.902 132.525 199.99 132.387C200.521 131.499 200.855 130.549 201.206 129.582C201.7 128.242 202.334 126.989 203.003 125.73C203.069 125.605 203.135 125.48 203.203 125.352C204.979 121.997 207.143 118.911 209.718 116.118C210.035 115.772 210.337 115.417 210.639 115.057C211.813 113.719 213.155 112.559 214.592 111.514C214.687 111.443 214.783 111.373 214.881 111.3C216.297 110.299 217.649 110.042 219.374 110.221C220.889 110.562 222.102 111.571 223.337 112.461C223.68 112.694 224.025 112.923 224.371 113.151C224.417 113.055 224.463 112.959 224.51 112.86C225.098 111.721 225.734 110.637 226.965 110.144C228.257 109.777 229.54 110.255 230.747 110.738C231.544 111.191 232.339 111.742 232.642 112.634C232.626 113.9 232.312 115.105 231.975 116.317C231.923 116.506 231.871 116.696 231.817 116.891C230.718 120.847 229.497 124.776 228.162 128.659C228.331 128.543 228.5 128.426 228.674 128.305C228.909 128.143 229.144 127.981 229.379 127.819C229.564 127.692 229.564 127.692 229.752 127.562C230.72 126.897 231.695 126.244 232.679 125.603C233.424 125.113 233.956 124.682 234.401 123.91C234.508 123.728 234.508 123.728 234.618 123.542C234.694 123.411 234.771 123.28 234.85 123.145C237.596 118.568 241.311 113.736 245.911 110.911C246.046 110.826 246.181 110.742 246.32 110.655C247.546 109.997 248.991 110.035 250.327 110.317C251.508 110.725 252.486 111.506 253.476 112.247C253.882 112.541 254.243 112.778 254.699 112.978C254.789 112.85 254.878 112.721 254.971 112.588C255.151 112.333 255.151 112.333 255.335 112.074C255.453 111.906 255.571 111.738 255.692 111.565C256.276 110.836 256.896 110.307 257.801 110.049C259.373 109.895 260.879 110.467 262.109 111.427C262.5 111.763 262.687 112.009 262.971 112.461C263.055 113.57 262.85 114.536 262.572 115.606C262.528 115.781 262.483 115.956 262.437 116.136C261.49 119.758 260.337 123.337 259.168 126.892C259.123 127.03 259.078 127.167 259.032 127.308C258.994 127.425 258.955 127.542 258.916 127.662C258.813 128 258.813 128 258.835 128.487C258.943 128.411 259.052 128.335 259.163 128.256C259.485 128.029 259.808 127.803 260.131 127.577C260.497 127.321 260.862 127.063 261.227 126.804C262.783 125.711 262.783 125.711 263.494 125.379C265.403 124.472 265.914 122.722 266.711 120.881C268.354 117.25 270.965 113.981 273.654 111.083C273.753 110.975 273.852 110.867 273.953 110.756C275.416 109.216 277.397 107.652 279.6 107.583C281.433 107.619 283.02 108.481 284.554 109.413C284.794 109.554 284.794 109.554 285.038 109.697C287.863 111.387 287.863 111.387 288.302 112.978C288.41 114.139 288.195 115.183 287.882 116.295C287.836 116.459 287.79 116.622 287.744 116.791C286.345 121.6 283.655 127.051 279.167 129.623C278.101 130.125 277.121 130.277 275.959 130.275C275.825 130.275 275.69 130.275 275.552 130.276C274.314 130.253 273.258 129.978 272.104 129.521C271.635 130.998 271.254 132.494 270.897 134.001C270.838 134.25 270.838 134.25 270.777 134.503C270.439 136.089 270.343 137.931 270.725 139.516C273.677 139.714 275.818 137.932 277.962 136.069C279.73 134.509 281.43 132.9 282.903 131.053C283.251 130.621 283.609 130.201 283.974 129.782C284.391 129.3 284.797 128.809 285.2 128.315C285.287 128.209 285.374 128.102 285.464 127.993C286.947 126.154 287.98 124.184 288.975 122.058C291.155 117.406 294.344 112.494 299.33 110.566C301.983 109.744 304.588 111.144 306.912 112.289C306.944 112.101 306.944 112.101 306.976 111.908C307.082 111.437 307.229 111.062 307.437 110.628C307.511 110.474 307.584 110.32 307.659 110.162C307.78 109.914 307.78 109.914 307.903 109.661C307.988 109.487 308.072 109.312 308.159 109.132C309.935 105.486 311.864 101.963 313.977 98.5035C314.058 98.3708 314.139 98.2381 314.222 98.1014C319.322 89.7948 319.322 89.7948 323.563 91.7386Z" fill="white"/>
<path d="M84.3472 32.8058C84.458 32.8053 84.5687 32.8048 84.6828 32.8042C85.0537 32.8028 85.4245 32.8039 85.7953 32.805C86.0615 32.8045 86.3276 32.8039 86.5938 32.8032C87.3174 32.8016 88.041 32.8022 88.7646 32.8033C89.5247 32.8042 90.2848 32.8034 91.0449 32.8028C92.3243 32.8022 93.6038 32.803 94.8832 32.8047C96.3541 32.8065 97.8251 32.8059 99.296 32.804C100.563 32.8025 101.831 32.8023 103.098 32.8032C103.853 32.8037 104.608 32.8038 105.363 32.8026C108.976 32.7979 112.561 32.7946 116.122 33.5066C116.271 33.5363 116.421 33.566 116.576 33.5966C120.076 34.32 123.53 35.7154 125.75 38.6331C127.109 40.7128 127.806 42.9963 128.216 45.4289C128.246 45.5996 128.275 45.7702 128.305 45.946C128.42 46.7599 128.414 47.57 128.413 48.3906C128.414 48.6521 128.414 48.6521 128.414 48.9188C128.416 49.5016 128.416 50.0844 128.416 50.6672C128.417 51.0856 128.418 51.504 128.419 51.9225C128.421 53.0586 128.422 54.1948 128.423 55.331C128.424 56.0416 128.424 56.7522 128.425 57.4628C128.427 59.4335 128.429 61.4041 128.43 63.3748C128.43 63.5008 128.43 63.6268 128.43 63.7566C128.43 63.8829 128.43 64.0091 128.43 64.1392C128.43 64.3951 128.43 64.651 128.43 64.9068C128.43 65.0338 128.43 65.1607 128.43 65.2914C128.431 67.3448 128.434 69.3982 128.438 71.4516C128.442 73.5641 128.444 75.6765 128.444 77.7889C128.444 78.9732 128.445 80.1575 128.449 81.3418C128.451 82.4571 128.452 83.5723 128.45 84.6876C128.45 85.0952 128.451 85.5028 128.453 85.9104C128.469 90.0063 128.06 93.9626 125.14 97.1249C121.907 100.135 117.286 101.296 112.964 101.281C112.728 101.281 112.728 101.281 112.487 101.282C111.963 101.282 111.439 101.281 110.915 101.28C110.538 101.28 110.161 101.28 109.784 101.28C108.763 101.28 107.742 101.279 106.721 101.278C105.653 101.277 104.585 101.277 103.517 101.277C101.496 101.276 99.4745 101.275 97.4532 101.273C95.8379 101.272 94.2225 101.271 92.6071 101.27C92.4933 101.27 92.3794 101.27 92.2621 101.27C91.6909 101.27 91.1196 101.269 90.5484 101.269C85.8149 101.267 81.0815 101.264 76.348 101.261C76.1819 100.901 76.0158 100.541 75.8497 100.181C75.7572 99.9807 75.6647 99.7803 75.5694 99.5739C75.4283 99.268 75.2874 98.9621 75.1472 98.6558C74.0092 96.1859 72.4342 94.0095 70.6615 91.9553C70.5327 91.8053 70.4038 91.6554 70.2711 91.5009C69.682 90.7714 69.682 90.7714 68.9383 90.2321C68.9383 90.1184 68.9383 90.0046 68.9383 89.8874C69.0804 89.887 69.2224 89.8866 69.3688 89.8862C72.8369 89.876 76.3051 89.8629 79.7732 89.8468C81.4504 89.8391 83.1277 89.8323 84.8049 89.8277C86.268 89.8238 87.7311 89.818 89.1942 89.8101C89.9677 89.806 90.7413 89.8028 91.5149 89.8017C92.2454 89.8006 92.9759 89.7971 93.7065 89.7919C93.9723 89.7904 94.2381 89.7898 94.5039 89.7901C98.3926 89.8139 98.3926 89.8139 101.733 88.1319C102.685 86.5449 102.609 84.9384 102.591 83.1555C102.59 82.8718 102.589 82.5882 102.589 82.3045C102.587 81.5625 102.582 80.8207 102.576 80.0787C102.571 79.3198 102.568 78.5608 102.566 77.8018C102.56 76.3161 102.552 74.8304 102.541 73.3447C102.474 73.4727 102.407 73.6007 102.338 73.7325C102.203 73.986 102.203 73.986 102.065 74.2447C101.932 74.4953 101.932 74.4953 101.797 74.7509C101.029 76.0446 100.005 76.8659 98.5773 77.3081C96.7844 77.7263 95.0824 77.9007 93.2393 77.892C92.9952 77.8927 92.7511 77.8936 92.507 77.8947C91.8529 77.897 91.1988 77.8962 90.5447 77.8945C89.8535 77.8932 89.1623 77.8944 88.471 77.8952C87.3102 77.8962 86.1493 77.8949 84.9884 77.8925C83.6562 77.8896 82.324 77.8906 80.9918 77.8934C79.8387 77.8958 78.6855 77.8961 77.5324 77.8947C76.8478 77.8939 76.1633 77.8938 75.4787 77.8955C64.4876 77.9195 64.4876 77.9195 60.5646 74.1431C59.9505 73.4712 59.5132 72.7826 59.1161 71.9662C59.0405 71.8147 58.965 71.6632 58.8872 71.5071C57.7811 69.0883 57.361 66.3536 57.3733 63.7093C57.3733 63.5645 57.3733 63.4197 57.3732 63.2706C57.3734 62.7979 57.3747 62.3252 57.376 61.8525C57.3764 61.5225 57.3766 61.1924 57.3768 60.8624C57.3774 59.9981 57.3791 59.1338 57.381 58.2695C57.3828 57.3858 57.3836 56.5021 57.3845 55.6184C57.3863 53.8876 57.3892 52.1569 57.3929 50.4262C58.2985 49.8786 58.2985 49.8786 58.5991 49.7369C58.9754 49.8305 58.9754 49.8305 59.2884 50.0816C59.4006 50.1698 59.5127 50.2579 59.6283 50.3488C59.7472 50.449 59.866 50.5492 59.9884 50.6524C61.9102 52.1671 64.1099 52.7115 66.5258 52.4941C68.0455 52.2062 69.2727 51.7231 70.4892 50.7709C70.6384 50.6713 70.7877 50.5718 70.9415 50.4693C72.5598 48.9362 73.4768 46.7749 73.6259 44.566C73.6572 42.484 73.1733 40.8611 72.248 39.004C72.0401 38.5362 72.0401 38.5362 72.0401 38.0192C72.187 37.9526 72.334 37.8861 72.4855 37.8175C75.1452 36.6126 77.8033 35.4045 80.4514 34.1743C80.6534 34.0805 80.8554 33.9867 81.0634 33.8901C81.9752 33.4825 81.9752 33.4825 82.854 33.0119C83.3682 32.7961 83.7897 32.8062 84.3472 32.8058Z" fill="white"/>
<path d="M210.754 32.8073C210.976 32.8076 211.198 32.8079 211.427 32.8082C211.55 32.808 211.673 32.8077 211.8 32.8074C212.216 32.8068 212.632 32.8087 213.048 32.8106C213.35 32.8107 213.652 32.8106 213.954 32.8104C214.765 32.8104 215.576 32.8124 216.386 32.8148C217.146 32.8167 217.906 32.8168 218.666 32.8171C220.891 32.8189 223.116 32.8237 225.34 32.8282C230.309 32.8353 235.277 32.8424 240.397 32.8497C240.397 44.6209 240.397 56.392 240.397 68.5199C244.775 68.5199 249.154 68.5199 253.665 68.5199C253.665 74.4908 253.665 80.4616 253.665 86.6135C249.287 86.6135 244.908 86.6135 240.397 86.6135C240.411 87.861 240.425 89.1084 240.44 90.3937C240.442 90.7809 240.445 91.168 240.448 91.5669C240.493 95.0062 240.919 98.2204 243.406 100.805C243.671 101.088 243.671 101.088 243.671 101.261C232.98 101.261 222.289 101.261 211.275 101.261C211.616 100.806 211.957 100.351 212.309 99.8821C215.048 95.8031 214.604 91.3618 214.721 86.4411C199.822 86.4411 184.923 86.4411 169.573 86.4411C169.573 81.0389 169.573 75.6367 169.573 70.0708C172.765 67.0668 172.765 67.0668 173.816 66.1296C174.293 65.7023 174.766 65.2699 175.238 64.8365C175.325 64.7572 175.411 64.6779 175.5 64.5961C175.765 64.3532 176.029 64.1103 176.294 63.8673C178.237 62.0817 178.237 62.0817 179.212 61.2071C179.882 60.6062 180.545 59.9981 181.205 59.3869C182.002 58.649 182.805 57.9184 183.614 57.1932C184.453 56.437 185.284 55.6711 186.116 54.9066C187.228 53.8847 188.343 52.8663 189.467 51.8574C190.308 51.0986 191.141 50.3311 191.975 49.5647C193.918 47.7791 193.918 47.7791 194.893 46.9045C195.661 46.2156 196.419 45.5166 197.176 44.8159C197.872 44.1719 198.576 43.5365 199.282 42.9035C199.808 42.4281 200.329 41.9473 200.849 41.4657C201.642 40.7322 202.44 40.0065 203.244 39.2861C203.778 38.8035 204.306 38.3147 204.834 37.8254C205.416 37.286 205.999 36.7493 206.6 36.2315C210.542 32.8248 210.542 32.8248 210.754 32.8073Z" fill="white"/>
<path d="M163.202 32.8025C163.571 32.8063 163.94 32.8097 164.309 32.8128C165.202 32.821 166.095 32.834 166.988 32.8496C166.988 32.9776 166.988 33.1057 166.988 33.2376C166.999 40.8325 167.011 48.4275 167.027 56.0224C167.029 56.9352 167.031 57.8479 167.033 58.7607C167.034 59.0332 167.034 59.0332 167.034 59.3113C167.04 62.2501 167.045 65.1889 167.048 68.1277C167.052 71.1452 167.058 74.1626 167.065 77.1801C167.07 79.0407 167.073 80.9013 167.074 82.7619C167.075 84.0393 167.078 85.3167 167.082 86.5941C167.084 87.3301 167.086 88.0661 167.085 88.8022C167.085 89.4779 167.087 90.1536 167.09 90.8293C167.091 91.0719 167.091 91.3146 167.09 91.5572C167.078 94.9976 167.784 97.9866 169.959 100.704C170.262 101.088 170.262 101.088 170.262 101.261C159.628 101.261 148.994 101.261 138.038 101.261C138.39 100.675 138.716 100.187 139.126 99.6558C139.656 98.9043 140.011 98.1527 140.332 97.2972C140.374 97.187 140.416 97.0767 140.459 96.9631C140.989 95.4803 141.191 94.0204 141.188 92.4509C141.189 92.284 141.19 92.1172 141.191 91.9453C141.194 91.391 141.194 90.8368 141.195 90.2825C141.197 89.8833 141.198 89.4841 141.2 89.0848C141.205 88.0044 141.208 86.924 141.21 85.8436C141.212 84.7132 141.217 83.5829 141.221 82.4525C141.229 80.5564 141.235 78.6602 141.24 76.7641C141.245 74.8117 141.251 72.8594 141.258 70.907C141.258 70.7865 141.258 70.666 141.259 70.5419C141.261 69.9373 141.263 69.3327 141.265 68.7281C141.283 63.7188 141.298 58.7096 141.312 53.7003C137.9 53.7003 134.488 53.7003 130.973 53.7003C130.973 49.8903 130.973 46.0803 130.973 42.1549C132.912 41.3795 132.912 41.3795 133.754 41.1044C133.944 41.0419 134.135 40.9794 134.331 40.915C134.533 40.8492 134.736 40.7835 134.944 40.7157C135.163 40.6441 135.382 40.5725 135.6 40.5008C136.187 40.3088 136.774 40.1174 137.36 39.9262C137.977 39.725 138.594 39.5232 139.211 39.3214C140.223 38.9905 141.235 38.6599 142.247 38.3295C143.824 37.8147 145.401 37.2985 146.977 36.781C147.976 36.4531 148.975 36.1269 149.976 35.8046C151.821 35.2093 153.648 34.6029 155.445 33.8761C155.706 33.7826 155.967 33.6922 156.229 33.6035C156.41 33.5409 156.592 33.4782 156.779 33.4136C158.926 32.7552 160.971 32.7622 163.202 32.8025Z" fill="white"/>
<path d="M17.0696 87.8196C17.7316 88.0318 18.3737 88.2731 19.017 88.536C20.1325 88.9824 21.2254 89.3133 22.4116 89.5105C22.5256 89.5297 22.6396 89.5489 22.757 89.5687C25.2311 89.9376 27.7414 89.9079 30.2355 89.9007C31.2209 89.8987 32.2063 89.9023 33.1916 89.9049C34.4352 89.9081 35.6786 89.9096 36.9222 89.9046C37.9366 89.9007 38.9508 89.9027 39.9652 89.9085C40.3466 89.9097 40.7279 89.9088 41.1093 89.9056C44.6392 89.8776 47.8268 90.6806 51.0597 92.0845C51.2286 92.1566 51.3974 92.2287 51.5713 92.303C56.0196 94.2446 60.1798 96.9315 63.2513 100.744C63.3082 100.914 63.3651 101.085 63.4237 101.261C48.7524 101.261 34.0811 101.261 18.9652 101.261C18.6562 99.5095 18.3519 97.7663 18.0962 96.0081C18.0663 95.8044 18.0364 95.6006 18.0057 95.3907C17.9436 94.9663 17.8818 94.542 17.8202 94.1176C17.7258 93.4684 17.6302 92.8194 17.5344 92.1703C17.4739 91.7551 17.4134 91.3399 17.353 90.9247C17.3102 90.6355 17.3102 90.6355 17.2666 90.3405C17.2406 90.1603 17.2147 89.9801 17.188 89.7944C17.1651 89.6372 17.1421 89.4799 17.1185 89.3179C17.0656 88.8154 17.0615 88.3245 17.0696 87.8196Z" fill="white"/>
<path d="M88.3309 44.195C88.6555 44.1925 88.6555 44.1925 88.9866 44.19C89.2201 44.1891 89.4537 44.1884 89.6872 44.1877C89.8067 44.1873 89.9261 44.1868 90.0492 44.1863C90.6822 44.1837 91.3151 44.1821 91.948 44.1813C92.5947 44.1804 93.2413 44.1763 93.888 44.1714C94.3914 44.1681 94.8949 44.1672 95.3983 44.167C95.6363 44.1665 95.8743 44.1651 96.1123 44.1628C100.076 44.1273 100.076 44.1273 101.539 45.192C102.137 45.7964 102.356 46.51 102.541 47.3245C102.57 47.4466 102.6 47.5686 102.631 47.6944C102.734 48.3138 102.738 48.9222 102.738 49.5482C102.738 49.6828 102.739 49.8175 102.74 49.9562C102.741 50.4003 102.742 50.8444 102.742 51.2885C102.742 51.5991 102.743 51.9098 102.744 52.2204C102.745 52.8718 102.745 53.5232 102.745 54.1746C102.745 55.0044 102.747 55.8342 102.75 56.6641C102.752 57.3061 102.752 57.9482 102.752 58.5903C102.752 58.8959 102.753 59.2015 102.755 59.5072C102.774 64.3538 102.774 64.3538 101.545 65.7711C100.205 66.9472 97.9255 66.7007 96.2387 66.693C95.9677 66.6933 95.6966 66.6938 95.4255 66.6945C94.861 66.6952 94.2965 66.6941 93.7319 66.6917C93.0128 66.6888 92.2937 66.6905 91.5745 66.6936C91.016 66.6954 90.4575 66.6948 89.8989 66.6935C89.6339 66.6931 89.3689 66.6936 89.1038 66.6948C87.4496 66.7007 85.9494 66.6429 84.4685 65.8381C83.3888 64.5996 83.2152 62.9684 83.2129 61.3893C83.2121 61.246 83.2112 61.1027 83.2104 60.9551C83.2078 60.4822 83.2067 60.0092 83.2057 59.5363C83.2047 59.206 83.2037 58.8756 83.2027 58.5453C83.2009 57.8526 83.1999 57.1599 83.1993 56.4672C83.1984 55.5836 83.1942 54.7001 83.1893 53.8166C83.1861 53.1338 83.1852 52.4511 83.185 51.7684C83.1844 51.4429 83.1831 51.1174 83.1808 50.792C83.1543 46.7075 83.1543 46.7075 84.1346 45.3428C85.3087 44.2992 86.8081 44.2045 88.3309 44.195Z" fill="#008DE7"/>
<path d="M262.899 148.975C269.264 148.928 275.627 148.921 281.988 149.193C282.348 149.208 282.709 149.223 283.07 149.237C295.123 149.727 295.123 149.727 298.07 152.332C298.388 152.968 298.314 153.312 298.124 153.991C296.883 156.374 294.218 157.106 291.856 157.943C291.539 158.056 291.539 158.056 291.215 158.17C287.314 159.537 283.293 160.66 279.169 161.056C279.597 160.77 279.952 160.586 280.422 160.394C280.564 160.335 280.706 160.276 280.853 160.216C281.15 160.094 281.448 159.973 281.745 159.851C282.824 159.411 282.824 159.411 283.821 158.816C283.973 158.456 283.973 158.456 283.994 158.126C283.19 157.67 282.444 157.479 281.538 157.362C281.386 157.341 281.233 157.321 281.076 157.3C276.884 156.764 272.673 156.394 268.451 156.217C268.284 156.209 268.118 156.202 267.947 156.195C263.927 156.024 259.907 155.983 255.884 155.955C254.928 155.948 253.972 155.939 253.017 155.93C251.165 155.914 249.313 155.9 247.462 155.886C247.625 155.585 247.788 155.284 247.952 154.983C248.043 154.815 248.133 154.648 248.227 154.475C248.578 153.843 248.957 153.232 249.347 152.623C249.485 152.406 249.623 152.189 249.761 151.972C249.835 151.859 249.91 151.747 249.987 151.631C250.24 151.222 250.24 151.222 250.429 150.694C250.701 150.069 250.939 149.646 251.425 149.166C252.487 148.852 253.536 148.919 254.635 148.95C254.989 148.953 255.343 148.954 255.696 148.955C256.53 148.958 257.364 148.967 258.197 148.979C259.765 148.999 261.332 148.987 262.899 148.975Z" fill="white"/>
<path d="M195.594 151.578C195.333 152.116 195.032 152.608 194.702 153.107C193.89 154.334 193.184 155.503 192.828 156.944C192.774 157.164 192.72 157.383 192.664 157.609C192.554 157.616 192.445 157.622 192.332 157.628C175.396 158.585 175.396 158.585 158.474 159.751C157.197 159.848 155.92 159.94 154.642 160.03C149.435 160.401 144.231 160.802 139.03 161.249C138.906 161.26 138.782 161.271 138.654 161.282C136.382 161.477 134.11 161.675 131.839 161.891C131.648 161.909 131.648 161.909 131.454 161.927C130.843 161.985 130.232 162.044 129.621 162.103C129.404 162.124 129.187 162.145 128.964 162.166C128.773 162.185 128.583 162.203 128.386 162.222C127.925 162.258 127.473 162.269 127.01 162.262C127.369 160.881 127.791 159.531 128.249 158.18C128.344 157.897 128.344 157.897 128.441 157.608C128.595 157.149 128.75 156.69 128.906 156.231C130.941 155.96 132.978 155.753 135.023 155.574C135.184 155.559 135.346 155.545 135.512 155.531C140.277 155.111 145.047 154.747 149.816 154.383C150.411 154.338 151.005 154.292 151.6 154.247C152.437 154.182 153.275 154.119 154.112 154.056C154.406 154.034 154.699 154.012 154.993 153.99C155.832 153.926 156.671 153.869 157.511 153.818C157.685 153.805 157.86 153.792 158.04 153.779C158.778 153.743 159.126 153.752 159.77 154.147C159.92 154.294 160.07 154.442 160.225 154.594C162.139 156.357 164.365 157.46 166.988 157.609C167.119 157.618 167.249 157.627 167.384 157.637C169.345 157.71 171.289 157.288 172.847 156.058C173.384 155.535 173.528 155.224 173.56 154.477C173.557 154.275 173.554 154.074 173.551 153.867C173.549 153.665 173.547 153.462 173.545 153.253C173.542 153.099 173.539 152.944 173.537 152.784C178.045 152.458 182.556 152.175 187.069 151.914C187.471 151.89 187.873 151.867 188.275 151.843C188.92 151.805 189.564 151.768 190.209 151.731C190.447 151.718 190.685 151.704 190.923 151.69C192.483 151.598 194.031 151.561 195.594 151.578Z" fill="white"/>
<path d="M214.721 45.429C214.721 53.049 214.721 60.669 214.721 68.5199C205.907 68.5199 197.092 68.5199 188.011 68.5199C189.34 67.1907 190.727 65.9573 192.19 64.7773C192.843 64.2357 193.462 63.6602 194.086 63.0857C194.545 62.6736 195.016 62.2832 195.496 61.8963C196.185 61.3411 196.842 60.7643 197.489 60.1624C198.283 59.4232 199.105 58.7314 199.95 58.0508C200.437 57.6485 200.902 57.2295 201.366 56.8021C202.132 56.0967 202.925 55.4366 203.735 54.7827C204.388 54.2411 205.008 53.6656 205.632 53.0912C206.091 52.679 206.561 52.2886 207.042 51.9018C207.73 51.3466 208.387 50.7698 209.034 50.1678C209.827 49.43 210.647 48.7393 211.491 48.0603C212.164 47.5032 212.803 46.9132 213.444 46.3189C214.435 45.429 214.435 45.429 214.721 45.429Z" fill="#008DE7"/>
<path d="M115.293 157.437C115.221 158.114 115.047 158.646 114.765 159.257C114.193 160.626 114.356 162.038 114.603 163.468C112.07 163.849 109.533 164.159 106.986 164.441C103.624 164.815 100.266 165.212 96.9116 165.653C96.6083 165.693 96.3051 165.732 96.0018 165.772C94.8089 165.929 93.6161 166.085 92.4239 166.247C87.0002 166.982 87.0002 166.982 85.0572 166.996C84.9322 166.997 84.8071 166.999 84.6783 167C83.9508 166.984 83.4734 166.844 82.8964 166.397C82.7241 165.988 82.7241 165.988 82.7241 165.536C83.0456 164.822 83.5477 164.354 84.1027 163.813C84.2936 163.565 84.2936 163.565 84.4884 163.312C84.9533 162.751 85.4934 162.407 86.1382 162.079C86.2511 162.02 86.364 161.962 86.4804 161.902C90.1976 160.047 94.5454 159.709 98.6055 159.225C98.9692 159.181 99.3328 159.137 99.6964 159.093C103.273 158.659 106.853 158.252 110.435 157.868C110.644 157.845 110.852 157.823 111.067 157.8C111.651 157.738 112.235 157.676 112.819 157.615C112.991 157.596 113.163 157.578 113.34 157.559C113.497 157.543 113.655 157.527 113.817 157.51C113.953 157.496 114.089 157.481 114.229 157.467C114.583 157.438 114.938 157.437 115.293 157.437Z" fill="white"/>
<path d="M158.04 153.778C158.778 153.743 159.127 153.752 159.77 154.147C159.92 154.294 160.07 154.442 160.225 154.593C163.16 157.298 166.256 157.646 170.09 157.609C170.09 157.837 170.09 158.064 170.09 158.298C168.891 158.48 167.709 158.502 166.497 158.513C166.057 158.519 165.616 158.524 165.176 158.53C164.945 158.532 164.714 158.535 164.483 158.538C158.594 158.44 158.594 158.44 152.774 159.077C152.33 159.162 151.915 159.19 151.463 159.202C151.213 159.211 151.213 159.211 150.958 159.22C150.614 159.23 150.27 159.24 149.927 159.249C149.052 159.28 148.214 159.349 147.353 159.505C146.272 159.699 145.21 159.741 144.113 159.763C142.895 159.788 141.699 159.853 140.491 160.016C139.172 160.194 137.857 160.281 136.528 160.348C134.621 160.443 132.728 160.566 130.834 160.819C130.126 160.902 129.445 160.909 128.734 160.883C128.674 159.971 128.832 159.275 129.113 158.409C129.297 157.801 129.41 157.188 129.521 156.564C129.595 156.231 129.595 156.231 129.768 156.058C130.01 156.021 130.254 155.995 130.498 155.973C130.735 155.951 130.735 155.951 130.977 155.929C131.24 155.906 131.24 155.906 131.508 155.883C131.783 155.858 131.783 155.858 132.065 155.833C132.681 155.778 133.298 155.724 133.914 155.67C134.127 155.652 134.339 155.633 134.558 155.614C139.646 155.165 144.738 154.768 149.83 154.382C150.417 154.337 151.004 154.292 151.592 154.247C152.431 154.183 153.271 154.119 154.11 154.056C154.405 154.034 154.699 154.012 154.993 153.99C156.008 153.912 157.025 153.854 158.04 153.778Z" fill="white"/>
<path d="M87.7565 22.2837C88.6522 22.7529 89.1316 23.4668 89.4447 24.406C89.5688 25.3638 89.5698 26.2463 89.1001 27.1093C88.565 27.7856 87.9521 28.1334 87.1864 28.4966C87.0655 28.5554 86.9447 28.6142 86.8202 28.6748C86.4324 28.8625 86.0433 29.0472 85.6537 29.231C85.4657 29.3198 85.4657 29.3198 85.2739 29.4104C84.3512 29.8446 83.4249 30.2706 82.4981 30.6957C82.2058 30.8301 81.9136 30.9646 81.6214 31.0991C79.3834 32.1285 77.1434 33.1535 74.9023 34.1761C74.7855 34.2294 74.6688 34.2827 74.5485 34.3376C74.3222 34.4408 74.0959 34.5439 73.8696 34.647C73.3273 34.8942 72.786 35.1436 72.2466 35.3971C72.0439 35.4921 71.8413 35.5871 71.6325 35.6849C71.3637 35.8119 71.3637 35.8119 71.0894 35.9415C70.6619 36.1238 70.6619 36.1238 70.3172 36.1238C69.4642 34.2472 68.6113 32.3706 67.7324 30.4372C68.3526 29.972 68.9508 29.6441 69.6461 29.3198C69.7674 29.2626 69.8886 29.2053 70.0135 29.1463C70.4123 28.9583 70.8117 28.7715 71.2111 28.5848C71.4908 28.4534 71.7704 28.322 72.0501 28.1905C74.2336 27.1662 76.4269 26.1639 78.6246 25.1705C78.738 25.1193 78.8514 25.068 78.9682 25.0152C79.0801 24.9646 79.192 24.914 79.3073 24.8619C80.088 24.5086 80.8668 24.1513 81.6445 23.7915C81.7498 23.7427 81.8551 23.694 81.9636 23.6438C82.457 23.4153 82.9502 23.1863 83.4432 22.9569C83.6142 22.8776 83.7852 22.7982 83.9614 22.7165C84.1102 22.6472 84.259 22.5779 84.4124 22.5066C85.4466 22.048 86.6645 21.9448 87.7565 22.2837Z" fill="white"/>
<path d="M77.7798 0.270946C78.5669 0.746223 79.025 1.47854 79.2777 2.34909C79.4424 3.31869 79.4021 4.17486 78.9331 5.05236C78.3981 5.72932 77.7841 6.07693 77.018 6.44034C76.8971 6.49918 76.7762 6.55803 76.6516 6.61866C76.2644 6.80606 75.8758 6.99053 75.4867 7.17404C75.3622 7.23284 75.2376 7.29164 75.1093 7.35222C74.193 7.78318 73.2731 8.20604 72.3526 8.62799C72.0618 8.76171 71.771 8.89546 71.4802 9.02926C70.8791 9.30572 70.2779 9.58191 69.6765 9.85787C68.7726 10.2728 67.8691 10.6885 66.9656 11.1044C66.3955 11.3668 65.8253 11.629 65.2552 11.8913C65.121 11.953 64.9868 12.0148 64.8485 12.0784C64.2344 12.3609 63.62 12.643 63.0051 12.9237C62.6335 13.0939 62.2625 13.2655 61.8928 13.4397C61.6879 13.5349 61.6879 13.5349 61.479 13.632C61.3689 13.6841 61.2588 13.7362 61.1454 13.7899C60.8395 13.8945 60.8395 13.8945 60.1502 13.8945C59.2972 12.0748 58.4443 10.2551 57.5654 8.38028C58.2067 7.89933 58.8353 7.56213 59.5545 7.2252C59.6834 7.16411 59.8123 7.10301 59.9451 7.04007C60.3685 6.83976 60.7925 6.64067 61.2165 6.44168C61.5126 6.30211 61.8087 6.16252 62.1049 6.02292C64.5568 4.86906 67.0185 3.73734 69.4914 2.62902C70.1566 2.32987 70.8179 2.02339 71.4765 1.70985C71.7935 1.55925 72.1114 1.41046 72.4296 1.26225C72.8148 1.08233 73.1986 0.899346 73.5805 0.712473C74.8817 0.112427 76.388 -0.296183 77.7798 0.270946Z" fill="white"/>
<path d="M303.293 116.252C303.605 116.425 303.605 116.425 303.81 116.769C304.063 118.791 302.852 120.654 301.953 122.391C301.727 122.83 301.505 123.272 301.284 123.713C300.024 126.201 298.61 128.564 297.089 130.9C297.001 131.037 296.912 131.174 296.821 131.315C294.633 134.679 294.633 134.679 293.298 135.725C292.823 135.713 292.823 135.713 292.437 135.552C291.709 134.097 292.515 131.961 292.967 130.51C294.56 125.769 297.365 119.036 301.914 116.425C302.432 116.252 302.755 116.199 303.293 116.252Z" fill="#008DE7"/>
<path d="M251.253 115.908C251.425 116.08 251.425 116.08 251.479 116.565C251.417 118.752 250.084 120.43 248.84 122.111C248.733 122.258 248.733 122.258 248.623 122.408C247.174 124.391 245.61 126.276 244.015 128.142C243.909 128.269 243.802 128.395 243.693 128.525C240.563 132.187 240.563 132.187 239.201 132.332C239.084 132.314 238.966 132.296 238.846 132.278C238.775 131.38 239.008 130.733 239.395 129.941C239.486 129.752 239.486 129.752 239.579 129.56C241.412 125.861 243.874 122.444 246.6 119.354C246.733 119.2 246.865 119.047 247.002 118.888C250.021 115.441 250.021 115.441 251.253 115.908Z" fill="#008DE7"/>
<path d="M218.948 116.526C219.121 116.698 219.121 116.698 219.175 117.183C219.113 119.37 217.78 121.048 216.536 122.729C216.429 122.876 216.429 122.876 216.319 123.026C214.87 125.009 213.306 126.894 211.711 128.76C211.605 128.887 211.498 129.013 211.389 129.143C208.259 132.805 208.259 132.805 206.897 132.95C206.78 132.932 206.662 132.914 206.541 132.896C206.471 131.998 206.704 131.351 207.091 130.559C207.182 130.37 207.182 130.37 207.274 130.178C209.108 126.479 211.57 123.062 214.296 119.972C214.428 119.818 214.561 119.665 214.698 119.506C217.717 116.059 217.717 116.059 218.948 116.526Z" fill="#008DE7"/>
<path d="M225.572 150.019C226.148 150.015 226.724 150.021 227.3 150.027C226.942 150.577 226.576 151.114 226.177 151.636C226.02 151.843 225.863 152.05 225.706 152.256C225.622 152.367 225.538 152.477 225.452 152.59C225.025 153.168 224.657 153.729 224.358 154.383C224.303 154.501 224.248 154.619 224.191 154.741C224.091 154.967 223.998 155.196 223.912 155.427C223.774 155.739 223.774 155.739 223.337 156.231C222.65 156.407 221.975 156.404 221.269 156.403C221.075 156.406 220.881 156.409 220.681 156.413C220.087 156.42 219.494 156.418 218.899 156.414C218.695 156.413 218.491 156.412 218.28 156.411C217.783 156.409 217.286 156.406 216.789 156.403C217.003 155.83 217.245 155.327 217.577 154.814C217.706 154.612 217.706 154.612 217.837 154.406C218.024 154.117 218.213 153.829 218.402 153.541C219.011 152.609 219.011 152.609 219.472 151.599C219.722 150.975 219.885 150.627 220.407 150.199C221.476 149.909 222.602 149.972 223.699 150.011C224.324 150.031 224.947 150.025 225.572 150.019Z" fill="white"/>
<path d="M281.236 114.701C281.35 114.758 281.464 114.815 281.581 114.874C280.651 118.929 279.386 122.953 275.894 125.558C275.181 125.861 274.599 125.939 273.827 125.902C274.145 124.817 274.563 123.883 275.151 122.919C275.228 122.792 275.304 122.665 275.382 122.535C277.051 119.779 278.915 116.955 281.236 114.701Z" fill="#008DE7"/>
<path d="M210.413 146.753C210.498 146.924 210.498 146.924 210.585 147.098C203.259 158.328 203.259 158.328 200.246 159.332C200.64 156.819 203.137 154.501 204.827 152.705C205.105 152.403 205.372 152.092 205.64 151.781C206.421 150.884 207.27 150.06 208.118 149.227C208.921 148.432 209.682 147.614 210.413 146.753Z" fill="#008DE7"/>
<path d="M240.741 146.925C240.741 147.489 240.676 147.605 240.374 148.056C240.293 148.178 240.212 148.299 240.129 148.424C240.039 148.555 239.95 148.686 239.858 148.821C239.766 148.957 239.673 149.094 239.578 149.235C234.422 156.799 234.422 156.799 230.919 159.332C230.805 159.332 230.691 159.332 230.574 159.332C230.807 158.532 231.144 157.862 231.597 157.168C231.665 157.063 231.732 156.959 231.802 156.852C232.564 155.704 233.45 154.673 234.365 153.646C234.491 153.503 234.616 153.361 234.746 153.214C235.132 152.779 235.523 152.35 235.916 151.923C236.003 151.828 236.09 151.733 236.179 151.636C237.661 150.025 239.183 148.462 240.741 146.925Z" fill="#008DE7"/>
<path d="M251.08 149.682C251.188 150.006 251.188 150.006 251.253 150.372C251.139 150.485 251.025 150.599 250.908 150.716C250.862 150.837 250.816 150.958 250.768 151.083C250.535 151.647 250.229 152.125 249.895 152.635C249.675 152.975 249.675 152.975 249.529 153.473C249.416 153.473 249.302 153.473 249.185 153.473C249.242 153.928 249.299 154.383 249.357 154.852C249.611 154.854 249.611 154.854 249.87 154.856C267.942 155.007 267.942 155.007 276.444 155.789C276.736 155.816 276.736 155.816 277.034 155.843C283.045 156.4 283.045 156.4 283.896 157.085C284.166 157.437 284.166 157.437 284.123 157.825C284.059 157.974 284.059 157.974 283.993 158.126C283.88 158.012 283.766 157.899 283.649 157.781C283.649 157.611 283.649 157.44 283.649 157.265C283.492 157.24 283.336 157.215 283.175 157.189C282.615 157.092 282.615 157.092 282.277 157.003C281.692 156.864 281.092 156.862 280.493 156.834C279.581 156.79 278.692 156.718 277.79 156.575C277.79 156.461 277.79 156.348 277.79 156.231C277.687 156.235 277.583 156.239 277.477 156.243C276.485 156.262 275.518 156.221 274.531 156.126C272.588 155.942 270.646 155.808 268.697 155.708C268.551 155.701 268.405 155.693 268.254 155.685C264.492 155.497 260.729 155.465 256.964 155.438C256.043 155.431 255.121 155.422 254.2 155.413C252.414 155.397 250.627 155.382 248.84 155.369C248.755 155.113 248.755 155.113 248.668 154.852C248.554 154.852 248.44 154.852 248.323 154.852C248.412 153.976 248.844 153.373 249.314 152.655C249.471 152.41 249.628 152.165 249.784 151.92C249.859 151.802 249.934 151.685 250.012 151.563C250.396 150.951 250.739 150.319 251.08 149.682Z" fill="white"/>
</svg>
