<svg width="24" height="24" viewBox="0 0 24 24" fill="none" xmlns="http://www.w3.org/2000/svg">
<path d="M11.5624 3.26599C11.6056 3.18759 11.669 3.12222 11.746 3.07669C11.8231 3.03116 11.9109 3.00714 12.0004 3.00714C12.0899 3.00714 12.1778 3.03116 12.2548 3.07669C12.3319 3.12222 12.3953 3.18759 12.4384 3.26599L15.3904 8.86999C15.4608 8.99975 15.5591 9.11232 15.6781 9.1996C15.7972 9.28689 15.9341 9.34674 16.079 9.37484C16.224 9.40295 16.3733 9.39862 16.5164 9.36216C16.6594 9.32571 16.7926 9.25803 16.9064 9.16399L21.1834 5.49999C21.2655 5.43321 21.3667 5.3942 21.4724 5.38859C21.5781 5.38297 21.6828 5.41103 21.7715 5.46873C21.8602 5.52643 21.9284 5.61079 21.9661 5.70968C22.0038 5.80856 22.0092 5.91686 21.9814 6.01899L19.1474 16.265C19.0896 16.4747 18.9649 16.6597 18.7924 16.7922C18.6199 16.9247 18.4089 16.9973 18.1914 16.999H5.81042C5.59276 16.9975 5.38153 16.925 5.20882 16.7925C5.0361 16.66 4.91132 16.4748 4.85342 16.265L2.02042 6.01999C1.99267 5.91786 1.99805 5.80956 2.03577 5.71068C2.07348 5.61179 2.14161 5.52743 2.23032 5.46973C2.31904 5.41203 2.42378 5.38397 2.52946 5.38959C2.63515 5.3952 2.73632 5.43421 2.81842 5.50099L7.09442 9.16499C7.20822 9.25903 7.34143 9.32671 7.48449 9.36316C7.62754 9.39962 7.7769 9.40395 7.92182 9.37584C8.06675 9.34774 8.20366 9.28789 8.32272 9.2006C8.44177 9.11331 8.54003 9.00075 8.61042 8.87099L11.5624 3.26599Z" stroke="#2A2A2A" stroke-width="1.5" stroke-linecap="round" stroke-linejoin="round"/>
<path d="M5 21H19" stroke="#2A2A2A" stroke-width="1.5" stroke-linecap="round" stroke-linejoin="round"/>
</svg>
